<svg width="13" height="22" viewBox="0 0 13 22" fill="none" xmlns="http://www.w3.org/2000/svg">
<g clip-path="url(#clip0_1_211)">
<path d="M6.38566 15.3755C6.216 15.3755 6.07097 15.3167 5.95056 15.199C5.83016 15.0813 5.76996 14.9377 5.76996 14.768C5.76996 14.5983 5.8329 14.4506 5.95877 14.3247L9.27533 11.0163L5.95877 7.70799C5.8329 7.58212 5.76996 7.43435 5.76996 7.26469C5.76996 7.09503 5.83016 6.95137 5.95056 6.8337C6.07097 6.71603 6.216 6.6572 6.38566 6.6572C6.54437 6.6572 6.68666 6.71467 6.81254 6.8296L10.556 10.5566C10.6873 10.677 10.753 10.8303 10.753 11.0163C10.753 11.1915 10.6873 11.3447 10.556 11.4761L6.81254 15.2031C6.69761 15.318 6.55532 15.3755 6.38566 15.3755Z" fill="#2997FF"/>
</g>
<defs>
<clipPath id="clip0_1_211">
<rect width="7.13" height="21" fill="white" transform="matrix(1 0 0 -1 5.76996 21.5)"/>
</clipPath>
</defs>
</svg>
