<svg width="13" height="22" viewBox="0 0 13 22" fill="none" xmlns="http://www.w3.org/2000/svg">
<g clip-path="url(#clip0_1_186)">
<path d="M6.38569 15.3755C6.21603 15.3755 6.071 15.3167 5.95059 15.199C5.83019 15.0813 5.76999 14.9377 5.76999 14.768C5.76999 14.5983 5.83293 14.4506 5.9588 14.3247L9.27536 11.0163L5.9588 7.70799C5.83293 7.58212 5.76999 7.43435 5.76999 7.26469C5.76999 7.09503 5.83019 6.95137 5.95059 6.8337C6.071 6.71603 6.21603 6.6572 6.38569 6.6572C6.5444 6.6572 6.6867 6.71467 6.81257 6.8296L10.556 10.5566C10.6874 10.677 10.753 10.8303 10.753 11.0163C10.753 11.1915 10.6874 11.3447 10.556 11.4761L6.81257 15.2031C6.69764 15.318 6.55535 15.3755 6.38569 15.3755Z" fill="#0066CC"/>
</g>
<defs>
<clipPath id="clip0_1_186">
<rect width="7.13" height="21" fill="white" transform="matrix(1 0 0 -1 5.76999 21.5)"/>
</clipPath>
</defs>
</svg>
