<svg width="27" height="16" viewBox="0 0 27 16" fill="none" xmlns="http://www.w3.org/2000/svg">
<g clip-path="url(#clip0_1_251)">
<path d="M13.9207 15.6543C13.0946 15.6543 12.2967 15.6484 11.5271 15.6365C10.7574 15.6246 10.0338 15.6077 9.3563 15.5857C8.67877 15.5637 8.06364 15.5376 7.51091 15.5073C6.95818 15.4771 6.48123 15.4434 6.08006 15.4062C5.67889 15.3691 5.36984 15.3295 5.15291 15.2874C4.93598 15.2452 4.82751 15.2015 4.82751 15.1562C4.82751 15.1107 4.93598 15.0669 5.15291 15.0249C5.36984 14.9829 5.67741 14.9434 6.07561 14.9062C6.47381 14.8691 6.94927 14.8354 7.50199 14.8052C8.05472 14.7749 8.66985 14.7488 9.34739 14.7268C10.0249 14.7048 10.7485 14.6879 11.5182 14.676C12.2878 14.6641 13.0857 14.6582 13.9118 14.6582C14.7439 14.6582 15.5448 14.6641 16.3144 14.676C17.0841 14.6879 17.8062 14.7048 18.4807 14.7268C19.1553 14.7488 19.7704 14.7749 20.3261 14.8052C20.8818 14.8354 21.3603 14.8691 21.7614 14.9062C22.1626 14.9434 22.4717 14.9829 22.6886 15.0249C22.9055 15.0669 23.014 15.1107 23.014 15.1562C23.014 15.2015 22.9055 15.2452 22.6886 15.2874C22.4717 15.3295 22.1626 15.3691 21.7614 15.4062C21.3603 15.4434 20.8833 15.4771 20.3306 15.5073C19.7779 15.5376 19.1627 15.5637 18.4852 15.5857C17.8077 15.6077 17.0855 15.6246 16.3189 15.6365C15.5522 15.6484 14.7528 15.6543 13.9207 15.6543ZM12.2982 15.3447L17.3084 15.1821C17.4332 15.1782 17.515 15.1729 17.5536 15.1663C17.5922 15.1596 17.5907 15.1529 17.5491 15.1462C17.5075 15.1396 17.4273 15.1343 17.3084 15.1304L12.2982 14.9678C12.1734 14.9635 12.0427 14.9618 11.906 14.9624C11.7693 14.9631 11.6534 14.9656 11.5583 14.97C11.4632 14.9744 11.4157 14.9803 11.4157 14.9878V15.3242C11.4157 15.3317 11.4602 15.3378 11.5494 15.3425C11.6385 15.3472 11.7514 15.3499 11.8881 15.3503C12.0248 15.3508 12.1615 15.349 12.2982 15.3447Z" fill="#1D1D1F"/>
</g>
<defs>
<clipPath id="clip0_1_251">
<rect width="21.792" height="1" fill="white" transform="matrix(1 0 0 -1 4.47003 15.75)"/>
</clipPath>
</defs>
</svg>
