<svg width="13" height="22" viewBox="0 0 13 22" fill="none" xmlns="http://www.w3.org/2000/svg">
<g clip-path="url(#clip0_1_130)">
<path d="M6.15568 15.2654C5.98602 15.2654 5.84099 15.2065 5.72058 15.0889C5.60018 14.9712 5.53998 14.8276 5.53998 14.6579C5.53998 14.4882 5.60292 14.3405 5.72879 14.2146L9.04535 10.9062L5.72879 7.59788C5.60292 7.47201 5.53998 7.32424 5.53998 7.15458C5.53998 6.98492 5.60018 6.84126 5.72058 6.72359C5.84099 6.60593 5.98602 6.54709 6.15568 6.54709C6.31439 6.54709 6.45668 6.60456 6.58256 6.71949L10.326 10.4465C10.4574 10.5669 10.523 10.7202 10.523 10.9062C10.523 11.0814 10.4574 11.2346 10.326 11.366L6.58256 15.093C6.46763 15.2079 6.32534 15.2654 6.15568 15.2654Z" fill="#0066CC"/>
</g>
<defs>
<clipPath id="clip0_1_130">
<rect width="7.13" height="21" fill="white" transform="matrix(1 0 0 -1 5.53998 21.3899)"/>
</clipPath>
</defs>
</svg>
