<svg width="14" height="22" viewBox="0 0 14 22" fill="none" xmlns="http://www.w3.org/2000/svg">
<g clip-path="url(#clip0_1_232)">
<path d="M6.52567 15.3755C6.35601 15.3755 6.21098 15.3167 6.09058 15.199C5.97017 15.0813 5.90997 14.9377 5.90997 14.768C5.90997 14.5983 5.97291 14.4506 6.09879 14.3247L9.41535 11.0163L6.09879 7.70799C5.97291 7.58212 5.90997 7.43435 5.90997 7.26469C5.90997 7.09503 5.97017 6.95137 6.09058 6.8337C6.21098 6.71603 6.35601 6.6572 6.52567 6.6572C6.68438 6.6572 6.82668 6.71467 6.95256 6.8296L10.696 10.5566C10.8274 10.677 10.893 10.8303 10.893 11.0163C10.893 11.1915 10.8274 11.3447 10.696 11.4761L6.95256 15.2031C6.83763 15.318 6.69533 15.3755 6.52567 15.3755Z" fill="#0066CC"/>
</g>
<defs>
<clipPath id="clip0_1_232">
<rect width="7.13" height="21" fill="white" transform="matrix(1 0 0 -1 5.90997 21.5)"/>
</clipPath>
</defs>
</svg>
