<svg width="17" height="30" viewBox="0 0 17 30" fill="none" xmlns="http://www.w3.org/2000/svg">
<g clip-path="url(#clip0_1_58)">
<path d="M7.59417 20.1417C7.38084 20.1417 7.19848 20.0677 7.04709 19.9198C6.8957 19.7718 6.82 19.5912 6.82 19.3779C6.82 19.1646 6.89914 18.9788 7.05741 18.8205L11.2276 14.6606L7.05741 10.5008C6.89914 10.3425 6.82 10.1567 6.82 9.94337C6.82 9.73004 6.8957 9.5494 7.04709 9.40145C7.19848 9.2535 7.38084 9.17953 7.59417 9.17953C7.79373 9.17953 7.97265 9.25178 8.13093 9.39629L12.8379 14.0826C13.003 14.234 13.0856 14.4267 13.0856 14.6606C13.0856 14.8808 13.003 15.0735 12.8379 15.2387L8.13093 19.925C7.98641 20.0695 7.8075 20.1417 7.59417 20.1417Z" fill="#2997FF"/>
</g>
<defs>
<clipPath id="clip0_1_58">
<rect width="9.51" height="29" fill="white" transform="matrix(1 0 0 -1 6.82 29.14)"/>
</clipPath>
</defs>
</svg>
