<svg width="13" height="22" viewBox="0 0 13 22" fill="none" xmlns="http://www.w3.org/2000/svg">
<g clip-path="url(#clip0_1_109)">
<path d="M5.9957 15.2654C5.82604 15.2654 5.68101 15.2065 5.56061 15.0889C5.44021 14.9712 5.38 14.8276 5.38 14.6579C5.38 14.4882 5.44294 14.3405 5.56882 14.2146L8.88538 10.9062L5.56882 7.59788C5.44294 7.47201 5.38 7.32424 5.38 7.15458C5.38 6.98492 5.44021 6.84126 5.56061 6.72359C5.68101 6.60593 5.82604 6.54709 5.9957 6.54709C6.15442 6.54709 6.29671 6.60456 6.42259 6.71949L10.166 10.4465C10.2974 10.5669 10.3631 10.7202 10.3631 10.9062C10.3631 11.0814 10.2974 11.2346 10.166 11.366L6.42259 15.093C6.30766 15.2079 6.16536 15.2654 5.9957 15.2654Z" fill="#0066CC"/>
</g>
<defs>
<clipPath id="clip0_1_109">
<rect width="7.13" height="21" fill="white" transform="matrix(1 0 0 -1 5.38 21.3899)"/>
</clipPath>
</defs>
</svg>
