<svg width="17" height="30" viewBox="0 0 17 30" fill="none" xmlns="http://www.w3.org/2000/svg">
<g clip-path="url(#clip0_1_64)">
<path d="M7.62417 20.1417C7.41085 20.1417 7.22849 20.0677 7.07709 19.9198C6.9257 19.7718 6.85001 19.5912 6.85001 19.3779C6.85001 19.1646 6.92914 18.9788 7.08742 18.8205L11.2576 14.6606L7.08742 10.5008C6.92914 10.3425 6.85001 10.1567 6.85001 9.94337C6.85001 9.73004 6.9257 9.5494 7.07709 9.40145C7.22849 9.2535 7.41085 9.17953 7.62417 9.17953C7.82374 9.17953 8.00265 9.25178 8.16093 9.39629L12.8679 14.0826C13.033 14.234 13.1156 14.4267 13.1156 14.6606C13.1156 14.8808 13.033 15.0735 12.8679 15.2387L8.16093 19.925C8.01642 20.0695 7.8375 20.1417 7.62417 20.1417Z" fill="#2997FF"/>
</g>
<defs>
<clipPath id="clip0_1_64">
<rect width="9.51" height="29" fill="white" transform="matrix(1 0 0 -1 6.85001 29.14)"/>
</clipPath>
</defs>
</svg>
