<svg width="13" height="22" viewBox="0 0 13 22" fill="none" xmlns="http://www.w3.org/2000/svg">
<g clip-path="url(#clip0_1_136)">
<path d="M5.76569 15.2654C5.59603 15.2654 5.451 15.2065 5.3306 15.0889C5.2102 14.9712 5.14999 14.8276 5.14999 14.6579C5.14999 14.4882 5.21293 14.3405 5.33881 14.2146L8.65537 10.9062L5.33881 7.59788C5.21293 7.47201 5.14999 7.32424 5.14999 7.15458C5.14999 6.98492 5.2102 6.84126 5.3306 6.72359C5.451 6.60593 5.59603 6.54709 5.76569 6.54709C5.92441 6.54709 6.0667 6.60456 6.19258 6.71949L9.93602 10.4465C10.0674 10.5669 10.133 10.7202 10.133 10.9062C10.133 11.0814 10.0674 11.2346 9.93602 11.366L6.19258 15.093C6.07765 15.2079 5.93535 15.2654 5.76569 15.2654Z" fill="#0066CC"/>
</g>
<defs>
<clipPath id="clip0_1_136">
<rect width="7.13" height="21" fill="white" transform="matrix(1 0 0 -1 5.14999 21.3899)"/>
</clipPath>
</defs>
</svg>
