<svg width="22" height="15" viewBox="0 0 22 15" fill="none" xmlns="http://www.w3.org/2000/svg">
<g clip-path="url(#clip0_1_269)">
<path d="M11.7168 13.4102C11.0833 13.4102 10.4715 13.327 9.88135 13.1606C9.29118 12.9943 8.73633 12.7573 8.2168 12.4497C7.69727 12.1421 7.22559 11.7764 6.80176 11.3525C6.37793 10.9287 6.01221 10.457 5.70459 9.9375C5.39697 9.41797 5.15999 8.86312 4.99365 8.27295C4.82731 7.68278 4.74414 7.07096 4.74414 6.4375C4.74414 5.79948 4.82731 5.18652 4.99365 4.59863C5.15999 4.01074 5.39583 3.45703 5.70117 2.9375C6.00651 2.41797 6.37109 1.94629 6.79492 1.52246C7.21875 1.09863 7.69043 0.73291 8.20996 0.425293C8.72949 0.117676 9.28434 -0.119303 9.87451 -0.285645C10.4647 -0.451986 11.0765 -0.535156 11.71 -0.535156C12.348 -0.535156 12.9621 -0.451986 13.5522 -0.285645C14.1424 -0.119303 14.6961 0.117676 15.2134 0.425293C15.7306 0.73291 16.2023 1.09863 16.6284 1.52246C17.0545 1.94629 17.4214 2.41797 17.729 2.9375C18.0366 3.45703 18.2736 4.01074 18.4399 4.59863C18.6063 5.18652 18.6895 5.79948 18.6895 6.4375C18.6895 7.07096 18.6063 7.68278 18.4399 8.27295C18.2736 8.86312 18.0366 9.41797 17.729 9.9375C17.4214 10.457 17.0557 10.9287 16.6318 11.3525C16.208 11.7764 15.7363 12.1421 15.2168 12.4497C14.6973 12.7573 14.1436 12.9943 13.5557 13.1606C12.9678 13.327 12.3548 13.4102 11.7168 13.4102ZM10.4727 9.07617L14.3145 6.7998C14.4102 6.74512 14.4728 6.67106 14.5024 6.57764C14.5321 6.48421 14.5309 6.39079 14.499 6.29736C14.4671 6.20394 14.4056 6.12988 14.3145 6.0752L10.4727 3.79883C10.377 3.73958 10.2767 3.71452 10.1719 3.72363C10.0671 3.73275 9.97819 3.76807 9.90527 3.82959C9.83236 3.89111 9.7959 3.97428 9.7959 4.0791V8.78906C9.7959 8.89388 9.83008 8.97933 9.89844 9.04541C9.9668 9.11149 10.0534 9.14795 10.1582 9.15479C10.263 9.16162 10.3678 9.13542 10.4727 9.07617Z" fill="#1D1D1F"/>
</g>
<defs>
<clipPath id="clip0_1_269">
<rect width="16.71" height="14" fill="white" transform="matrix(1 0 0 -1 4.47 14.75)"/>
</clipPath>
</defs>
</svg>
