<svg width="30" height="39" viewBox="0 0 30 39" fill="none" xmlns="http://www.w3.org/2000/svg">
<g clip-path="url(#clip0_1_324)">
<path d="M10.9575 30.4746C9.96208 30.4746 9.00065 30.3439 8.07324 30.0825C7.14583 29.8211 6.27393 29.4487 5.45752 28.9653C4.64111 28.4819 3.8999 27.9072 3.23389 27.2412C2.56787 26.5752 1.99316 25.834 1.50977 25.0176C1.02637 24.2012 0.653971 23.3293 0.392578 22.4019C0.131185 21.4744 0.000488281 20.513 0.000488281 19.5176C0.000488281 18.515 0.131185 17.5518 0.392578 16.6279C0.653971 15.7041 1.02458 14.834 1.50439 14.0176C1.98421 13.2012 2.55713 12.46 3.22314 11.7939C3.88916 11.1279 4.63037 10.5532 5.44678 10.0698C6.26318 9.58643 7.13509 9.21403 8.0625 8.95264C8.98991 8.69124 9.95133 8.56055 10.9468 8.56055C11.9494 8.56055 12.9144 8.69124 13.8418 8.95264C14.7692 9.21403 15.6393 9.58643 16.4521 10.0698C17.265 10.5532 18.0062 11.1279 18.6758 11.7939C19.3454 12.46 19.9219 13.2012 20.4053 14.0176C20.8887 14.834 21.2611 15.7041 21.5225 16.6279C21.7839 17.5518 21.9146 18.515 21.9146 19.5176C21.9146 20.513 21.7839 21.4744 21.5225 22.4019C21.2611 23.3293 20.8887 24.2012 20.4053 25.0176C19.9219 25.834 19.3472 26.5752 18.6812 27.2412C18.0151 27.9072 17.2739 28.4819 16.4575 28.9653C15.6411 29.4487 14.771 29.8211 13.8472 30.0825C12.9233 30.3439 11.9601 30.4746 10.9575 30.4746ZM10.9575 28.6484C11.9744 28.6484 12.9395 28.4963 13.8525 28.1919C14.7656 27.8875 15.6017 27.4561 16.3608 26.8975C17.12 26.3389 17.7788 25.68 18.3374 24.9209C18.896 24.1618 19.3275 23.3257 19.6318 22.4126C19.9362 21.4995 20.0884 20.5345 20.0884 19.5176C20.0884 18.5007 19.9344 17.5356 19.6265 16.6226C19.3185 15.7095 18.8853 14.8734 18.3267 14.1143C17.7681 13.3551 17.1092 12.6963 16.3501 12.1377C15.591 11.5791 14.7549 11.1476 13.8418 10.8433C12.9287 10.5389 11.9637 10.3867 10.9468 10.3867C9.92985 10.3867 8.96663 10.5389 8.05713 10.8433C7.14762 11.1476 6.31331 11.5791 5.5542 12.1377C4.79508 12.6963 4.13802 13.3551 3.58301 14.1143C3.02799 14.8734 2.59831 15.7095 2.29395 16.6226C1.98958 17.5356 1.8374 18.5007 1.8374 19.5176C1.8374 20.5345 1.98958 21.4995 2.29395 22.4126C2.59831 23.3257 3.02799 24.1618 3.58301 24.9209C4.13802 25.68 4.79508 26.3389 5.5542 26.8975C6.31331 27.4561 7.14941 27.8875 8.0625 28.1919C8.97559 28.4963 9.94059 28.6484 10.9575 28.6484ZM9.06689 23.4707C8.90934 23.5638 8.75358 23.605 8.59961 23.5942C8.44564 23.5835 8.31673 23.528 8.21289 23.4277C8.10905 23.3275 8.05713 23.1986 8.05713 23.041V16.0049C8.05713 15.8402 8.11084 15.7113 8.21826 15.6182C8.32568 15.5251 8.45817 15.4731 8.61572 15.4624C8.77327 15.4517 8.92367 15.4893 9.06689 15.5752L14.8247 18.9805C14.9608 19.0592 15.0521 19.1685 15.0986 19.3081C15.1452 19.4478 15.147 19.5874 15.104 19.7271C15.061 19.8667 14.9679 19.9795 14.8247 20.0654L9.06689 23.4707Z" fill="#1D1D1D"/>
</g>
<defs>
<clipPath id="clip0_1_324">
<rect width="25.75" height="22" fill="white" transform="matrix(1 0 0 -1 0 32.5801)"/>
</clipPath>
</defs>
</svg>
