<svg width="31" height="45" viewBox="0 0 31 45" fill="none" xmlns="http://www.w3.org/2000/svg">
<g clip-path="url(#clip0_1_577)">
<path d="M20.1835 16.5283H19.163C19.0536 15.7173 18.6573 14.9723 18.0458 14.4284C17.4344 13.8845 16.6483 13.5776 15.83 13.5635C15.0118 13.5776 14.2257 13.8845 13.6143 14.4284C13.0028 14.9723 12.6064 15.7173 12.497 16.5283H11.477C10.9158 16.5287 10.3777 16.7517 9.98079 17.1485C9.58388 17.5452 9.36063 18.0833 9.36005 18.6445V26.36C9.36055 26.9211 9.58365 27.4592 9.98039 27.856C10.3771 28.2528 10.9151 28.4761 11.4762 28.4767H20.1832C20.7445 28.4762 21.2826 28.2531 21.6795 27.8562C22.0764 27.4594 22.2995 26.9212 22.3 26.36V18.6445C22.2995 18.0834 22.0763 17.5454 21.6795 17.1487C21.2827 16.7519 20.7447 16.5288 20.1835 16.5283ZM15.83 14.6631C16.3575 14.6746 16.8652 14.8657 17.2692 15.2048C17.6733 15.544 17.9495 16.0109 18.0522 16.5283H13.6078C13.7106 16.0109 13.9868 15.544 14.3909 15.2048C14.7949 14.8657 15.3026 14.6746 15.83 14.6631ZM21.2 26.36C21.1998 26.6296 21.0926 26.888 20.902 27.0787C20.7114 27.2694 20.453 27.3767 20.1834 27.3771H11.4765C11.207 27.3766 10.9486 27.2693 10.7581 27.0787C10.5675 26.888 10.4603 26.6296 10.46 26.36V18.6445C10.4604 18.375 10.5676 18.1166 10.7582 17.926C10.9487 17.7354 11.2071 17.6282 11.4766 17.6279H20.1836C20.4531 17.6283 20.7115 17.7355 20.902 17.9261C21.0925 18.1167 21.1997 18.375 21.2 18.6445V26.36Z" fill="white" fill-opacity="0.8"/>
</g>
<defs>
<clipPath id="clip0_1_577">
<rect width="14" height="44" fill="white" transform="translate(8.83002 0.5)"/>
</clipPath>
</defs>
</svg>
