<svg width="32" height="45" viewBox="0 0 32 45" fill="none" xmlns="http://www.w3.org/2000/svg">
<g clip-path="url(#clip0_1_571)">
<path d="M22.9872 27.702L19.1172 23.832C19.8182 22.903 20.2392 21.751 20.2392 20.5C20.2392 17.44 17.7502 14.95 14.6892 14.95C11.6292 14.95 9.13916 17.44 9.13916 20.5C9.13916 23.561 11.6292 26.05 14.6892 26.05C15.9402 26.05 17.0922 25.629 18.0212 24.928L21.8912 28.798C22.0422 28.949 22.2412 29.026 22.4392 29.026C22.6372 29.026 22.8352 28.95 22.9872 28.798C23.2902 28.495 23.2902 28.005 22.9872 27.702ZM10.2392 20.5C10.2392 18.046 12.2362 16.05 14.6892 16.05C17.1432 16.05 19.1392 18.047 19.1392 20.5C19.1392 22.953 17.1432 24.95 14.6892 24.95C12.2352 24.95 10.2392 22.954 10.2392 20.5Z" fill="white" fill-opacity="0.8"/>
</g>
<defs>
<clipPath id="clip0_1_571">
<rect width="15" height="44" fill="white" transform="translate(8.68915 0.5)"/>
</clipPath>
</defs>
</svg>
