<svg width="47" height="45" viewBox="0 0 47 45" fill="none" xmlns="http://www.w3.org/2000/svg">
<g clip-path="url(#clip0_1_513)">
<path d="M34.7087 20.9629C35.7107 20.9629 36.3787 21.7009 36.4017 22.8199H32.9217C32.9977 21.7009 33.7007 20.9629 34.7087 20.9629ZM37.4627 23.6349V23.2479C37.4627 21.2849 36.4257 20.0719 34.7207 20.0719C32.9857 20.0719 31.8727 21.3609 31.8727 23.3479C31.8727 25.3459 32.9687 26.6109 34.7207 26.6109C36.1037 26.6109 37.0877 25.9429 37.3807 24.8649H36.3727C36.1087 25.4219 35.5587 25.7209 34.7437 25.7209C33.6717 25.7209 32.9747 24.9299 32.9217 23.6819V23.6349H37.4627ZM27.9157 20.1839H28.8757V21.1209H28.9697C29.1577 20.5059 29.8837 20.0719 30.7217 20.0719C30.8857 20.0719 31.0967 20.0839 31.2257 20.1019V21.1089C31.1437 21.0859 30.7807 21.0509 30.5817 21.0509C29.6207 21.0509 28.9227 22.1489 28.9227 22.5859V26.4999H27.9157V20.1839ZM23.6457 25.7029C22.4507 25.7029 21.7767 24.8359 21.7767 23.3419C21.7767 21.8419 22.4507 20.9809 23.6457 20.9809C24.8417 20.9809 25.5157 21.8419 25.5157 23.3419C25.5157 24.8359 24.8417 25.7029 23.6457 25.7029ZM23.6457 20.0719C21.8477 20.0719 20.7337 21.3089 20.7337 23.3419C20.7337 25.3689 21.8477 26.6109 23.6457 26.6109C25.4447 26.6109 26.5587 25.3689 26.5587 23.3419C26.5587 21.3089 25.4447 20.0719 23.6457 20.0719ZM18.1677 18.5969V20.2319H19.5747V21.0749H18.1677V24.6499C18.1677 25.3939 18.4497 25.7099 19.1057 25.7099C19.2877 25.7099 19.3867 25.7039 19.5747 25.6869V26.5359C19.3757 26.5709 19.1817 26.5949 18.9827 26.5949C17.6817 26.5949 17.1607 26.1139 17.1607 24.9069V21.0749H16.1407V20.2319H17.1607V18.5969H18.1677ZM10.0647 24.2909C10.1937 25.1759 11.0377 25.7379 12.2387 25.7379C13.3757 25.7379 14.2137 25.1229 14.2137 24.2849C14.2137 23.5649 13.6867 23.1079 12.5207 22.8149L11.4367 22.5329C9.90669 22.1469 9.24469 21.4549 9.24469 20.2539C9.24469 18.8179 10.4457 17.8459 12.2327 17.8459C13.8677 17.8459 15.0867 18.8179 15.1747 20.1839H14.1137C13.9677 19.3169 13.2527 18.8009 12.1977 18.8009C11.0727 18.8009 10.3287 19.3629 10.3287 20.2189C10.3287 20.8809 10.7917 21.2619 11.9577 21.5609L12.8427 21.7949C14.5947 22.2339 15.2977 22.9139 15.2977 24.1559C15.2977 25.7089 14.0727 26.6989 12.1397 26.6989C10.3467 26.6989 9.10969 25.7499 8.99869 24.2909H10.0647Z" fill="white" fill-opacity="0.8"/>
</g>
<defs>
<clipPath id="clip0_1_513">
<rect width="30" height="44" fill="white" transform="translate(8.14078 0.5)"/>
</clipPath>
</defs>
</svg>
