<svg width="61" height="45" viewBox="0 0 61 45" fill="none" xmlns="http://www.w3.org/2000/svg">
<g clip-path="url(#clip0_1_565)">
<path d="M50.669 18.5337V20.1687H52.075V21.0127H50.669V24.5867C50.669 25.3307 50.95 25.6467 51.606 25.6467C51.788 25.6467 51.888 25.6407 52.075 25.6237V26.4727C51.876 26.5087 51.683 26.5317 51.483 26.5317C50.183 26.5317 49.661 26.0517 49.661 24.8447V21.0127H48.642V20.1687H49.661V18.5337H50.669ZM44.538 20.1687H45.499V21.1057H45.592C45.78 20.4907 46.506 20.0567 47.344 20.0567C47.508 20.0567 47.719 20.0687 47.848 20.0867V21.0947C47.766 21.0707 47.403 21.0357 47.204 21.0357C46.243 21.0357 45.545 21.6797 45.545 22.5707V26.4847H44.538V20.1687ZM42.075 23.3267C42.075 21.8267 41.401 20.9657 40.206 20.9657C39.011 20.9657 38.337 21.8267 38.337 23.3267C38.337 24.8207 39.011 25.6877 40.206 25.6877C41.401 25.6877 42.075 24.8207 42.075 23.3267ZM37.294 23.3267C37.294 21.2937 38.407 20.0567 40.206 20.0567C42.005 20.0567 43.118 21.2937 43.118 23.3267C43.118 25.3537 42.005 26.5967 40.206 26.5967C38.407 26.5967 37.294 25.3537 37.294 23.3267ZM35.186 23.3267C35.186 21.8497 34.494 20.9657 33.34 20.9657C32.197 20.9657 31.477 21.8737 31.477 23.3267C31.477 24.7737 32.197 25.6877 33.334 25.6877C34.494 25.6877 35.186 24.8037 35.186 23.3267ZM36.229 23.3267C36.229 25.3017 35.18 26.5967 33.574 26.5967C32.672 26.5967 31.945 26.2037 31.6 25.5357H31.506V28.5947H30.498V20.1687H31.459V21.2227H31.553C31.957 20.4967 32.713 20.0567 33.574 20.0567C35.186 20.0567 36.229 21.3407 36.229 23.3267ZM28.181 23.3267C28.181 21.8497 27.49 20.9657 26.336 20.9657C25.193 20.9657 24.472 21.8737 24.472 23.3267C24.472 24.7737 25.193 25.6877 26.33 25.6877C27.49 25.6877 28.181 24.8037 28.181 23.3267ZM29.224 23.3267C29.224 25.3017 28.175 26.5967 26.57 26.5967C25.668 26.5967 24.941 26.2037 24.595 25.5357H24.502V28.5947H23.494V20.1687H24.455V21.2227H24.548C24.953 20.4967 25.709 20.0567 26.57 20.0567C28.181 20.0567 29.224 21.3407 29.224 23.3267ZM21.579 26.4847H20.618V25.4947H20.524C20.208 26.1977 19.534 26.5967 18.567 26.5967C17.149 26.5967 16.411 25.7527 16.411 24.2587V20.1687H17.419V24.0127C17.419 25.1487 17.841 25.6767 18.849 25.6767C19.962 25.6767 20.571 25.0137 20.571 23.9067V20.1687H21.579V26.4847ZM9.88899 24.2757C10.018 25.1607 10.861 25.7227 12.063 25.7227C13.199 25.7227 14.037 25.1077 14.037 24.2697C14.037 23.5497 13.51 23.0927 12.344 22.7997L11.26 22.5177C9.73099 22.1317 9.06799 21.4397 9.06799 20.2387C9.06799 18.8037 10.27 17.8307 12.057 17.8307C13.691 17.8307 14.91 18.8037 14.998 20.1687H13.938C13.791 19.3017 13.076 18.7857 12.022 18.7857C10.897 18.7857 10.152 19.3477 10.152 20.2037C10.152 20.8657 10.615 21.2467 11.781 21.5457L12.666 21.7797C14.418 22.2197 15.121 22.8987 15.121 24.1407C15.121 25.6937 13.897 26.6837 11.963 26.6837C10.17 26.6837 8.93399 25.7347 8.82199 24.2757H9.88899Z" fill="white" fill-opacity="0.8"/>
</g>
<defs>
<clipPath id="clip0_1_565">
<rect width="44" height="44" fill="white" transform="translate(8.5484 0.5)"/>
</clipPath>
</defs>
</svg>
