<svg width="94" height="45" viewBox="0 0 94 45" fill="none" xmlns="http://www.w3.org/2000/svg">
<g clip-path="url(#clip0_1_555)">
<path d="M8.26691 17.9863H13.5052V18.9355H9.32161V21.6484H13.2884V22.5859H9.32161V25.4921H13.5052V26.4413H8.26691V17.9863ZM15.1663 20.125H16.1858V21.0742H16.2796C16.596 20.4062 17.1878 20.0137 18.1194 20.0137C19.5374 20.0137 20.3284 20.8516 20.3284 22.3516V26.4414H19.3089V22.5976C19.3089 21.4609 18.8401 20.916 17.8323 20.916C16.8245 20.916 16.1858 21.5957 16.1858 22.7031V26.4414H15.1663V20.125ZM22.4466 24.8008V20.9688H21.4505V20.125H22.4466V18.4902H23.5013V20.125H24.8841V20.9688H23.5013V24.543C23.5013 25.2871 23.7591 25.586 24.4154 25.586C24.597 25.586 24.6966 25.5801 24.8842 25.5626V26.4298C24.685 26.465 24.4916 26.4884 24.2924 26.4884C22.9915 26.4883 22.4466 26.0078 22.4466 24.8008ZM25.8831 23.3066V23.3007C25.8831 21.3495 26.9964 20.0136 28.7132 20.0136C30.43 20.0136 31.473 21.2909 31.473 23.1777V23.5761H26.9261C26.9554 24.8827 27.6761 25.6445 28.8011 25.6445C29.6566 25.6445 30.1839 25.2402 30.3538 24.8593L30.3772 24.8066H31.3967L31.385 24.8535C31.1682 25.709 30.2659 26.5527 28.7776 26.5527C26.973 26.5527 25.8831 25.2871 25.8831 23.3066ZM26.9437 22.7617H30.4359C30.3304 21.5137 29.639 20.9219 28.7074 20.9219C27.7698 20.9219 27.055 21.5605 26.9437 22.7617ZM32.9349 20.125H33.9544V21.0625H34.0482C34.2884 20.4004 34.8802 20.0137 35.7357 20.0137C35.9291 20.0137 36.1459 20.0371 36.2455 20.0547V21.0449C36.0346 21.0097 35.8412 20.9863 35.6185 20.9863C34.6458 20.9863 33.9544 21.6015 33.9544 22.5273V26.4414H32.9349V20.125ZM37.9007 24.8008V20.9688H36.9046V20.125H37.9007V18.4902H38.9554V20.125H40.3382V20.9688H38.9554V24.543C38.9554 25.2871 39.2132 25.586 39.8695 25.586C40.0511 25.586 40.1507 25.5801 40.3383 25.5626V26.4298C40.1391 26.465 39.9457 26.4884 39.7465 26.4884C38.4456 26.4883 37.9007 26.0078 37.9007 24.8008ZM41.3665 24.6777V24.666C41.3665 23.541 42.1985 22.8906 43.6692 22.8027L45.4797 22.6914V22.1172C45.4797 21.3379 45.0051 20.916 44.0617 20.916C43.3058 20.916 42.8078 21.1972 42.6437 21.6894L42.6378 21.707H41.6183L41.6242 21.6718C41.7883 20.6816 42.7492 20.0136 44.0969 20.0136C45.6379 20.0136 46.4992 20.8046 46.4992 22.1171V26.4413H45.4797V25.5097H45.3859C44.9875 26.1835 44.3254 26.5527 43.4757 26.5527C42.2747 26.5527 41.3665 25.8262 41.3665 24.6777ZM43.6868 25.668C44.7239 25.668 45.4798 24.9883 45.4798 24.086V23.5118L43.7923 23.6173C42.8314 23.6759 42.4095 24.0157 42.4095 24.6427V24.6544C42.4095 25.293 42.9544 25.668 43.6868 25.668ZM48.0794 18.2031C48.0794 17.8164 48.3958 17.5 48.7825 17.5C49.1692 17.5 49.4856 17.8164 49.4856 18.2031C49.4856 18.5898 49.1692 18.9062 48.7825 18.9062C48.3958 18.9062 48.0794 18.5898 48.0794 18.2031ZM48.2669 20.125H49.2864V26.4414H48.2669V20.125ZM51.0882 20.125H52.1077V21.0742H52.2015C52.5179 20.4062 53.1097 20.0137 54.0413 20.0137C55.4593 20.0137 56.2503 20.8516 56.2503 22.3516V26.4414H55.2308V22.5976C55.2308 21.4609 54.762 20.916 53.7542 20.916C52.7464 20.916 52.1077 21.5957 52.1077 22.7031V26.4414H51.0882V20.125ZM57.97 20.125H58.9895V21.0859H59.0833C59.3645 20.4062 59.9622 20.0136 60.7884 20.0136C61.6439 20.0136 62.2415 20.4648 62.5345 21.121H62.6283C62.9681 20.453 63.6888 20.0136 64.5619 20.0136C65.851 20.0136 66.5717 20.7519 66.5717 22.0761V26.4413H65.5522V22.3104C65.5522 21.3788 65.1245 20.9159 64.2338 20.9159C63.3549 20.9159 62.7748 21.578 62.7748 22.3807V26.4412H61.7553V22.1521C61.7553 21.4021 61.2397 20.9158 60.4428 20.9158C59.6166 20.9158 58.9897 21.6365 58.9897 22.5271V26.4412H57.9702L57.97 20.125ZM67.9749 23.3066V23.3007C67.9749 21.3495 69.0882 20.0136 70.805 20.0136C72.5218 20.0136 73.5648 21.2909 73.5648 23.1777V23.5761H69.0179C69.0472 24.8827 69.7679 25.6445 70.8929 25.6445C71.7484 25.6445 72.2757 25.2402 72.4456 24.8593L72.469 24.8066H73.4885L73.4769 24.8535C73.2601 25.709 72.3578 26.5527 70.8695 26.5527C69.0648 26.5527 67.9749 25.2871 67.9749 23.3066ZM69.0355 22.7617H72.5277C72.4222 21.5137 71.7308 20.9219 70.7992 20.9219C69.8616 20.9219 69.1468 21.5605 69.0355 22.7617ZM75.0267 20.125H76.0462V21.0742H76.14C76.4564 20.4062 77.0482 20.0137 77.9798 20.0137C79.3978 20.0137 80.1888 20.8516 80.1888 22.3516V26.4414H79.1693V22.5976C79.1693 21.4609 78.7005 20.916 77.6927 20.916C76.6849 20.916 76.0462 21.5957 76.0462 22.7031V26.4414H75.0267V20.125ZM82.3069 24.8008V20.9688H81.3108V20.125H82.3069V18.4902H83.3616V20.125H84.7444V20.9688H83.3616V24.543C83.3616 25.2871 83.6194 25.586 84.2757 25.586C84.4573 25.586 84.5569 25.5801 84.7445 25.5626V26.4298C84.5453 26.465 84.3519 26.4884 84.1527 26.4884C82.8519 26.4883 82.3069 26.0078 82.3069 24.8008Z" fill="white" fill-opacity="0.8"/>
</g>
<defs>
<clipPath id="clip0_1_555">
<rect width="77" height="44" fill="white" transform="translate(8.26691 0.5)"/>
</clipPath>
</defs>
</svg>
