<svg width="55" height="45" viewBox="0 0 55 45" fill="none" xmlns="http://www.w3.org/2000/svg">
<path d="M41.276 22.8203H44.756C44.733 21.7013 44.065 20.9633 43.063 20.9633C42.055 20.9633 41.352 21.7013 41.276 22.8203ZM45.735 24.8653C45.442 25.9433 44.458 26.6113 43.075 26.6113C41.323 26.6113 40.227 25.3453 40.227 23.3473C40.227 21.3613 41.34 20.0723 43.075 20.0723C44.78 20.0723 45.817 21.2853 45.817 23.2483V23.6343H41.276V23.6813C41.329 24.9293 42.026 25.7203 43.098 25.7203C43.913 25.7203 44.464 25.4223 44.727 24.8653H45.735ZM33.453 20.1833H34.414V21.1793H34.508C34.824 20.4823 35.44 20.0723 36.406 20.0723C37.824 20.0723 38.615 20.9103 38.615 22.4103V26.5003H37.608V22.6563C37.608 21.5193 37.127 20.9803 36.119 20.9803C35.111 20.9803 34.461 21.6543 34.461 22.7613V26.5003H33.453V20.1833ZM30.954 23.3413C30.954 21.8413 30.28 20.9803 29.085 20.9803C27.889 20.9803 27.215 21.8413 27.215 23.3413C27.215 24.8363 27.889 25.7033 29.085 25.7033C30.28 25.7033 30.954 24.8363 30.954 23.3413ZM26.172 23.3413C26.172 21.3083 27.286 20.0723 29.085 20.0723C30.883 20.0723 31.997 21.3083 31.997 23.3413C31.997 25.3693 30.883 26.6113 29.085 26.6113C27.286 26.6113 26.172 25.3693 26.172 23.3413ZM19.536 17.6753H20.544V21.1793H20.637C20.954 20.4823 21.616 20.0723 22.583 20.0723C23.919 20.0723 24.762 20.9273 24.762 22.4103V26.5003H23.755V22.6563C23.755 21.5373 23.251 20.9803 22.296 20.9803C21.165 20.9803 20.544 21.6953 20.544 22.7613V26.5003H19.536V17.6753ZM13.521 22.5453H15.384C16.586 22.5453 17.283 21.9003 17.283 20.7813C17.283 19.6213 16.609 18.9823 15.384 18.9823H13.521V22.5453ZM15.66 18.0453C17.259 18.0453 18.367 19.1703 18.367 20.7813C18.367 22.3633 17.236 23.4823 15.648 23.4823H13.521V26.5003H12.466V18.0453H15.66ZM9.54598 26.4993H10.554V20.1833H9.54598V26.4993ZM9.34598 18.2613C9.34598 17.8753 9.66298 17.5583 10.049 17.5583C10.436 17.5583 10.753 17.8753 10.753 18.2613C10.753 18.6483 10.436 18.9653 10.049 18.9653C9.66298 18.9653 9.34598 18.6483 9.34598 18.2613Z" fill="white" fill-opacity="0.8"/>
</svg>
