<svg width="52" height="45" viewBox="0 0 52 45" fill="none" xmlns="http://www.w3.org/2000/svg">
<path d="M37.6858 17.6758H38.6938V21.1798H38.7878C39.1038 20.4828 39.7658 20.0718 40.7328 20.0718C42.0688 20.0718 42.9128 20.9278 42.9128 22.4098V26.4998H41.9048V22.6558C41.9048 21.5368 41.4008 20.9808 40.4458 20.9808C39.3148 20.9808 38.6938 21.6958 38.6938 22.7618V26.4998H37.6858V17.6758ZM35.2658 22.1168C35.1018 21.4898 34.5448 20.9808 33.6368 20.9808C32.4998 20.9808 31.7848 21.8888 31.7848 23.3188C31.7848 24.7778 32.5118 25.7028 33.6368 25.7028C34.4858 25.7028 35.0778 25.3108 35.2658 24.5958H36.2848C36.1028 25.7558 35.1598 26.6118 33.6428 26.6118C31.8728 26.6118 30.7418 25.3278 30.7418 23.3188C30.7418 21.3498 31.8668 20.0718 33.6368 20.0718C35.1718 20.0718 36.1088 20.9918 36.2848 22.1168H35.2658ZM28.7328 18.5488V20.1838H30.1398V21.0278H28.7328V24.6018C28.7328 25.3458 29.0148 25.6618 29.6708 25.6618C29.8528 25.6618 29.9518 25.6558 30.1398 25.6388V26.4888C29.9398 26.5238 29.7468 26.5468 29.5478 26.5468C28.2468 26.5468 27.7258 26.0668 27.7258 24.8598V21.0278H26.7058V20.1838H27.7258V18.5488H28.7328ZM24.5328 24.1448V23.5648L22.8338 23.6758C21.8728 23.7398 21.4508 24.0738 21.4508 24.7068C21.4508 25.3518 21.9958 25.7268 22.7278 25.7268C23.7658 25.7268 24.5328 25.0468 24.5328 24.1448ZM20.4078 24.7308C20.4078 23.5998 21.2398 22.9488 22.7108 22.8618L24.5328 22.7498V22.1758C24.5328 21.3968 24.0468 20.9688 23.1028 20.9688C22.3478 20.9688 21.8198 21.2558 21.6798 21.7538H20.6598C20.7948 20.7398 21.7908 20.0718 23.1388 20.0718C24.6798 20.0718 25.5408 20.8638 25.5408 22.1758V26.4998H24.5798V25.5688H24.4858C24.0758 26.2418 23.3848 26.6118 22.5408 26.6118C21.3158 26.6118 20.4078 25.8848 20.4078 24.7308ZM12.7238 26.4998H11.7278L9.42476 18.0448H10.5258L12.2078 24.9178H12.2778L14.1708 18.0448H15.2368L17.1298 24.9178H17.1998L18.8818 18.0448H19.9828L17.6808 26.4998H16.6848L14.7388 19.8258H14.6688L12.7238 26.4998Z" fill="white" fill-opacity="0.8"/>
</svg>
