<svg width="40" height="45" viewBox="0 0 40 45" fill="none" xmlns="http://www.w3.org/2000/svg">
<g clip-path="url(#clip0_1_518)">
<path d="M16.4374 26.4987V20.0417H16.3671L13.7011 26.4987H12.8104L10.1444 20.0417H10.0741V26.4987H9.08966V18.0436H10.3143L13.2088 25.0983H13.3026L16.1971 18.0436H17.4217V26.4987H16.4374ZM18.954 24.7291C18.954 23.5982 19.786 22.9479 21.2567 22.86L23.079 22.7487V22.1745C23.079 21.3952 22.5927 20.9675 21.6493 20.9675C20.8934 20.9675 20.3661 21.2546 20.2255 21.7527H19.206C19.3408 20.739 20.3369 20.0711 21.6845 20.0711C23.2255 20.0711 24.0868 20.8621 24.0868 22.1746V26.4988H23.1259V25.567H23.0321C22.6219 26.2408 21.9305 26.61 21.0868 26.61C19.8622 26.61 18.954 25.8834 18.954 24.7291ZM23.079 24.1432V23.5631L21.3798 23.6744C20.4189 23.7389 19.997 24.0728 19.997 24.7056C19.997 25.3501 20.5419 25.7251 21.2743 25.7251C22.3114 25.7252 23.079 25.0455 23.079 24.1432ZM30.037 22.1159C29.8729 21.4889 29.3163 20.9792 28.4081 20.9792C27.2714 20.9792 26.5565 21.8874 26.5565 23.3171C26.5565 24.7761 27.2831 25.7019 28.4081 25.7019C29.2577 25.7019 29.8495 25.3093 30.037 24.5945H31.0565C30.8749 25.7547 29.9315 26.6101 28.4139 26.6101C26.6444 26.6101 25.5135 25.3269 25.5135 23.3171C25.5135 21.3483 26.6385 20.071 28.408 20.071C29.9432 20.071 30.8807 20.9909 31.0564 22.1159H30.037Z" fill="white" fill-opacity="0.8"/>
</g>
<defs>
<clipPath id="clip0_1_518">
<rect width="23" height="44" fill="white" transform="translate(8.28156 0.5)"/>
</clipPath>
</defs>
</svg>
