<svg width="41" height="45" viewBox="0 0 41 45" fill="none" xmlns="http://www.w3.org/2000/svg">
<path d="M23.3798 24.2002C23.3798 25.1022 22.6118 25.7822 21.5748 25.7822C20.8428 25.7822 20.2978 25.4072 20.2978 24.7622C20.2978 24.1302 20.7198 23.7962 21.6808 23.7312L23.3798 23.6202V24.2002ZM21.9848 20.1282C20.6378 20.1282 19.6418 20.7962 19.5068 21.8092H20.5258C20.6668 21.3112 21.1938 21.0242 21.9498 21.0242C22.8938 21.0242 23.3798 21.4522 23.3798 22.2312V22.8052L21.5578 22.9172C20.0868 23.0052 19.2548 23.6552 19.2548 24.7862C19.2548 25.9402 20.1628 26.6672 21.3878 26.6672C22.2318 26.6672 22.9228 26.2982 23.3328 25.6242H23.4268V26.5552H24.3878V22.2312C24.3878 20.9192 23.5258 20.1282 21.9848 20.1282ZM28.7538 25.7032C27.5988 25.7032 26.9078 24.8182 26.9078 23.3422C26.9078 21.8712 27.6048 20.9802 28.7538 20.9802C29.8958 20.9802 30.6108 21.8942 30.6108 23.3422C30.6108 24.8012 29.9018 25.7032 28.7538 25.7032ZM30.5878 17.6762V21.1792H30.4998C30.1418 20.4882 29.3978 20.0722 28.5188 20.0722C26.9138 20.0722 25.8648 21.3612 25.8648 23.3422C25.8648 25.3282 26.9018 26.6112 28.5188 26.6112C29.3918 26.6112 30.1418 26.1952 30.5408 25.4922H30.6338V26.5002H31.5948V17.6762H30.5878ZM15.1938 22.5452H13.3308V18.9822H15.1938C16.4188 18.9822 17.0928 19.6212 17.0928 20.7812C17.0928 21.9002 16.3958 22.5452 15.1938 22.5452ZM15.4698 18.0452H12.2758V26.5002H13.3308V23.4822H15.4578C17.0458 23.4822 18.1768 22.3632 18.1768 20.7812C18.1768 19.1702 17.0688 18.0452 15.4698 18.0452ZM9.40579 26.4992H10.4138V20.1832H9.40579V26.4992ZM9.20679 18.2622C9.20679 17.8752 9.52279 17.5582 9.90979 17.5582C10.2968 17.5582 10.6128 17.8752 10.6128 18.2622C10.6128 18.6482 10.2968 18.9652 9.90979 18.9652C9.52279 18.9652 9.20679 18.6482 9.20679 18.2622Z" fill="white" fill-opacity="0.8"/>
</svg>
