<svg width="60" height="45" viewBox="0 0 60 45" fill="none" xmlns="http://www.w3.org/2000/svg">
<g clip-path="url(#clip0_1_545)">
<path d="M20.7007 20.1836H21.6617V21.1206H21.7557C21.9427 20.5056 22.6697 20.0726 23.5077 20.0726C23.6717 20.0726 23.8827 20.0836 24.0117 20.1016V21.1096C23.9297 21.0856 23.5657 21.0506 23.3667 21.0506C22.4057 21.0506 21.7087 21.6956 21.7087 22.5856V26.4996H20.7007V20.1836ZM48.8357 20.0726C50.1597 20.0726 51.0797 20.7286 51.2147 21.7656H50.2187C50.0837 21.2616 49.5917 20.9276 48.8297 20.9276C48.0797 20.9276 47.4937 21.3086 47.4937 21.8706C47.4937 22.3046 47.8457 22.5746 48.5897 22.7556L49.5627 22.9906C50.7517 23.2776 51.3257 23.7926 51.3257 24.7016C51.3257 25.8316 50.2307 26.6116 48.7947 26.6116C47.3887 26.6116 46.4217 25.9376 46.3107 24.8886H47.3477C47.5177 25.4216 48.0217 25.7616 48.8297 25.7616C49.6797 25.7616 50.2887 25.3576 50.2887 24.7776C50.2887 24.3436 49.9607 24.0506 49.2867 23.8866L48.2027 23.6226C47.0197 23.3356 46.4807 22.8266 46.4807 21.9126C46.4807 20.8636 47.4937 20.0726 48.8357 20.0726ZM42.1707 25.7036C41.0157 25.7036 40.3247 24.8186 40.3247 23.3416C40.3247 21.8706 41.0217 20.9806 42.1707 20.9806C43.3127 20.9806 44.0277 21.8946 44.0277 23.3416C44.0277 24.8006 43.3187 25.7036 42.1707 25.7036ZM44.0047 17.6756V21.1796H43.9167C43.5587 20.4886 42.8147 20.0726 41.9357 20.0726C40.3307 20.0726 39.2817 21.3616 39.2817 23.3416C39.2817 25.3286 40.3187 26.6116 41.9357 26.6116C42.8087 26.6116 43.5587 26.1956 43.9577 25.4926H44.0517V26.4996H45.0127V17.6756H44.0047ZM35.0037 25.7036C33.8087 25.7036 33.1347 24.8356 33.1347 23.3416C33.1347 21.8416 33.8087 20.9806 35.0037 20.9806C36.1997 20.9806 36.8727 21.8416 36.8727 23.3416C36.8727 24.8356 36.1997 25.7036 35.0037 25.7036ZM35.0037 20.0726C33.2047 20.0726 32.0917 21.3086 32.0917 23.3416C32.0917 25.3696 33.2047 26.6116 35.0037 26.6116C36.8027 26.6116 37.9157 25.3696 37.9157 23.3416C37.9157 21.3086 36.8027 20.0726 35.0037 20.0726ZM17.9327 26.4996H18.9407V20.1836H17.9327V26.4996ZM17.7337 18.2616C17.7337 17.8746 18.0507 17.5586 18.4367 17.5586C18.8237 17.5586 19.1397 17.8746 19.1397 18.2616C19.1397 18.6486 18.8237 18.9646 18.4367 18.9646C18.0507 18.9646 17.7337 18.6486 17.7337 18.2616ZM11.5967 23.1836L12.9207 19.4106H13.0137L14.3387 23.1836H11.5967ZM13.4887 18.0446H12.4457L9.32871 26.4996H10.4357L11.2857 24.0796H14.6487L15.4987 26.4996H16.6057L13.4887 18.0446ZM28.3567 22.5446H26.4927V18.9826H28.3567C29.5807 18.9826 30.2547 19.6216 30.2547 20.7816C30.2547 21.9006 29.5577 22.5446 28.3567 22.5446ZM28.6317 18.0446H25.4387V26.4996H26.4927V23.4826H28.6197C30.2077 23.4826 31.3387 22.3636 31.3387 20.7816C31.3387 19.1696 30.2317 18.0446 28.6317 18.0446Z" fill="white" fill-opacity="0.8"/>
</g>
<defs>
<clipPath id="clip0_1_545">
<rect width="43" height="44" fill="white" transform="translate(8.98541 0.5)"/>
</clipPath>
</defs>
</svg>
