<svg width="51" height="45" viewBox="0 0 51 45" fill="none" xmlns="http://www.w3.org/2000/svg">
<g clip-path="url(#clip0_1_538)">
<path d="M9.24893 18.0449H10.3563L12.8407 25.1347H12.9345L15.4189 18.0449H16.5263L13.4091 26.5H12.3661L9.24893 18.0449ZM17.5956 18.2617C17.5956 17.875 17.912 17.5586 18.2987 17.5586C18.6854 17.5586 19.0018 17.875 19.0018 18.2617C19.0018 18.6484 18.6854 18.9648 18.2987 18.9648C17.912 18.9648 17.5956 18.6484 17.5956 18.2617ZM17.7831 20.1836H18.8026V26.5H17.7831V20.1836ZM20.2821 24.8887H21.3251C21.495 25.416 21.9989 25.7617 22.8075 25.7617C23.6571 25.7617 24.2606 25.3574 24.2606 24.7832V24.7715C24.2606 24.3438 23.9383 24.0449 23.159 23.8574L22.1805 23.623C20.9969 23.3418 20.4637 22.8261 20.4637 21.9179V21.912C20.4637 20.8632 21.4715 20.0722 22.8133 20.0722C24.1375 20.0722 25.0574 20.7343 25.1981 21.7656H24.1961C24.0613 21.2676 23.5691 20.9218 22.8074 20.9218C22.0574 20.9218 21.5066 21.3085 21.5066 21.8652V21.8769C21.5066 22.3046 21.823 22.5742 22.5671 22.7558L23.5398 22.9902C24.7293 23.2773 25.3035 23.7929 25.3035 24.6953V24.707C25.3035 25.832 24.2078 26.6113 22.7723 26.6113C21.3661 26.6113 20.3993 25.9317 20.2821 24.8887ZM26.6024 18.2617C26.6024 17.875 26.9188 17.5586 27.3055 17.5586C27.6922 17.5586 28.0086 17.875 28.0086 18.2617C28.0086 18.6484 27.6922 18.9648 27.3055 18.9648C26.9188 18.9648 26.6024 18.6484 26.6024 18.2617ZM26.7899 20.1836H27.8094V26.5H26.7899V20.1836ZM29.2948 23.3477V23.336C29.2948 21.3087 30.4081 20.0723 32.2069 20.0723C34.0057 20.0723 35.119 21.3086 35.119 23.336V23.3477C35.119 25.3692 34.0057 26.6114 32.2069 26.6114C30.4081 26.6114 29.2948 25.3692 29.2948 23.3477ZM34.076 23.3477V23.336C34.076 21.8419 33.4022 20.9747 32.2069 20.9747C31.0116 20.9747 30.3378 21.8419 30.3378 23.336V23.3477C30.3378 24.836 31.0116 25.709 32.2069 25.709C33.4022 25.709 34.076 24.836 34.076 23.3477ZM36.5809 20.1836H37.6004V21.1328H37.6942C38.0106 20.4648 38.6024 20.0723 39.534 20.0723C40.952 20.0723 41.743 20.9102 41.743 22.4102V26.5H40.7235V22.6562C40.7235 21.5195 40.2547 20.9746 39.2469 20.9746C38.2391 20.9746 37.6004 21.6543 37.6004 22.7617V26.5H36.5809V20.1836Z" fill="white" fill-opacity="0.8"/>
</g>
<defs>
<clipPath id="clip0_1_538">
<rect width="34" height="44" fill="white" transform="translate(8.84464 0.5)"/>
</clipPath>
</defs>
</svg>
