<svg width="82" height="45" viewBox="0 0 82 45" fill="none" xmlns="http://www.w3.org/2000/svg">
<path d="M12.5017 26.5V18.9941H9.77706V18.0449H16.281V18.9941H13.5564V26.5H12.5017ZM20.2331 26.5L17.1159 18.0449H18.2233L20.7077 25.1347H20.8015L23.2859 18.0449H24.3933L21.2761 26.5H20.2331ZM34.2141 25.6562C33.4934 26.289 32.5032 26.6582 31.4778 26.6582C29.7962 26.6582 28.6184 25.6621 28.6184 24.2441C28.6184 23.2421 29.1633 22.4804 30.2942 21.8828C30.3704 21.8476 30.5286 21.7656 30.6223 21.7187C29.843 20.8984 29.5618 20.3535 29.5618 19.7382C29.5618 18.6542 30.4817 17.8456 31.718 17.8456C32.966 17.8456 33.8742 18.6425 33.8742 19.7499C33.8742 20.6171 33.3527 21.2499 32.0461 21.9354L34.1613 24.2088C34.425 23.6815 34.5597 22.99 34.5597 21.9354V21.7889H35.5441V21.9412C35.5441 23.2537 35.3097 24.2088 34.8468 24.9236L36.3176 26.5H34.9934L34.2141 25.6562ZM29.6731 24.1738C29.6731 25.123 30.4407 25.7676 31.5715 25.7676C32.3391 25.7676 33.1301 25.4629 33.593 24.9766L31.2024 22.3633C31.1379 22.3867 30.9856 22.4629 30.9036 22.5039C30.0891 22.9258 29.6731 23.5117 29.6731 24.1738ZM32.884 19.7852C32.884 19.129 32.4094 18.6836 31.7238 18.6836C31.05 18.6836 30.5695 19.1406 30.5695 19.7969C30.5695 20.2657 30.8097 20.6758 31.4777 21.3379C32.509 20.8105 32.884 20.3887 32.884 19.7852ZM46.4016 26.5V22.6504H41.761V26.5H40.7063V18.0449H41.761V21.7011H46.4016V18.0449H47.4563V26.5H46.4016ZM49.0471 23.3418C49.0471 21.3086 50.1604 20.0723 51.9592 20.0723C53.758 20.0723 54.8713 21.3086 54.8713 23.3418C54.8713 25.3691 53.758 26.6113 51.9592 26.6113C50.1604 26.6113 49.0471 25.3691 49.0471 23.3418ZM53.8283 23.3418C53.8283 21.8418 53.1545 20.9805 51.9592 20.9805C50.7639 20.9805 50.0901 21.8418 50.0901 23.3418C50.0901 24.8359 50.7639 25.7031 51.9592 25.7031C53.1545 25.7031 53.8283 24.8359 53.8283 23.3418ZM56.3337 20.1836H57.2946V21.1797H57.3884C57.6755 20.4766 58.3083 20.0723 59.1521 20.0723C60.0076 20.0723 60.6052 20.5235 60.8982 21.1797H60.992C61.3318 20.5117 62.0525 20.0723 62.9256 20.0723C64.2147 20.0723 64.9354 20.8106 64.9354 22.1348V26.5H63.9276V22.3691C63.9276 21.4375 63.4881 20.9804 62.5975 20.9804C61.7186 20.9804 61.1327 21.6366 61.1327 22.4394V26.5H60.1249V22.2109C60.1249 21.4609 59.6034 20.9804 58.8065 20.9804C57.9803 20.9804 57.3417 21.6952 57.3417 22.5859V26.5H56.3339L56.3337 20.1836ZM71.8464 24.8652C71.5534 25.9433 70.5691 26.6113 69.1862 26.6113C67.4342 26.6113 66.3385 25.3457 66.3385 23.3476C66.3385 21.3613 67.4518 20.0722 69.1862 20.0722C70.8913 20.0722 71.9284 21.2851 71.9284 23.248V23.6347H67.3874V23.6816C67.4401 24.9296 68.1374 25.7207 69.2097 25.7207C70.0242 25.7207 70.5749 25.4219 70.8386 24.8652H71.8464ZM67.3874 22.8203H70.8679C70.8445 21.7012 70.1765 20.9629 69.1745 20.9629C68.1667 20.9629 67.4636 21.7012 67.3874 22.8203Z" fill="white" fill-opacity="0.8"/>
</svg>
