<svg width="84" height="45" viewBox="0 0 84 45" fill="none" xmlns="http://www.w3.org/2000/svg">
<g clip-path="url(#clip0_1_560)">
<path d="M14.0679 24.0715H10.7047L9.85505 26.4914H8.74765L11.8649 18.0363H12.9078L16.0251 26.4914H14.9176L14.0679 24.0715ZM11.0153 23.175H13.7575L12.4333 19.4016H12.3395L11.0153 23.175ZM21.1138 22.1086C20.9497 21.4816 20.3932 20.9719 19.485 20.9719C18.3483 20.9719 17.6334 21.8801 17.6334 23.3098C17.6334 24.7688 18.36 25.6946 19.485 25.6946C20.3346 25.6946 20.9263 25.302 21.1138 24.5872H22.1334C21.9518 25.7474 21.0084 26.6028 19.4908 26.6028C17.7213 26.6028 16.5904 25.3196 16.5904 23.3098C16.5904 21.341 17.7153 20.0637 19.4848 20.0637C21.02 20.0637 21.9576 20.9836 22.1333 22.1086H21.1138ZM27.7085 22.1086C27.5444 21.4816 26.9879 20.9719 26.0797 20.9719C24.943 20.9719 24.2281 21.8801 24.2281 23.3098C24.2281 24.7688 24.9547 25.6946 26.0797 25.6946C26.9293 25.6946 27.521 25.302 27.7085 24.5872H28.7281C28.5465 25.7474 27.603 26.6028 26.0854 26.6028C24.3159 26.6028 23.1851 25.3196 23.1851 23.3098C23.1851 21.341 24.31 20.0637 26.0795 20.0637C27.6147 20.0637 28.5522 20.9836 28.7279 22.1086H27.7085ZM35.2882 24.8566C34.9952 25.9347 34.0109 26.6027 32.628 26.6027C30.876 26.6027 29.7803 25.3371 29.7803 23.339C29.7803 21.3527 30.8936 20.0636 32.628 20.0636C34.3331 20.0636 35.3701 21.2765 35.3701 23.2394V23.6261H30.8291V23.673C30.8818 24.921 31.5791 25.7121 32.6514 25.7121C33.4659 25.7121 34.0166 25.4133 34.2803 24.8566H35.2882ZM30.8291 22.8117H34.3097C34.2863 21.6926 33.6182 20.9543 32.6162 20.9543C31.6084 20.9543 30.9053 21.6926 30.8291 22.8117ZM39.0411 20.0637C40.3653 20.0637 41.2853 20.7199 41.4201 21.7571H40.424C40.2892 21.2532 39.7969 20.9192 39.0352 20.9192C38.2852 20.9192 37.6994 21.3001 37.6994 21.8626C37.6994 22.2962 38.0509 22.5657 38.795 22.7474L39.7677 22.9818C40.9572 23.2689 41.5314 23.7845 41.5314 24.6927C41.5314 25.8236 40.4357 26.6029 39.0002 26.6029C37.594 26.6029 36.6273 25.9291 36.5159 24.8802H37.5529C37.7228 25.4134 38.2268 25.7532 39.0354 25.7532C39.885 25.7532 40.4944 25.3489 40.4944 24.7688C40.4944 24.3352 40.1662 24.0422 39.4923 23.8782L38.4083 23.6145C37.2248 23.3274 36.6856 22.8176 36.6856 21.9036C36.6856 20.8547 37.6993 20.0637 39.0411 20.0637ZM45.085 20.0637C46.4092 20.0637 47.3292 20.7199 47.464 21.7571H46.4678C46.333 21.2532 45.8409 20.9192 45.0792 20.9192C44.3292 20.9192 43.7433 21.3001 43.7433 21.8626C43.7433 22.2962 44.0949 22.5657 44.839 22.7474L45.8116 22.9818C47.0011 23.2689 47.5754 23.7845 47.5754 24.6927C47.5754 25.8236 46.4797 26.6029 45.0442 26.6029C43.638 26.6029 42.6711 25.9291 42.5597 24.8802H43.5969C43.7668 25.4134 44.2707 25.7532 45.0793 25.7532C45.9289 25.7532 46.5382 25.3489 46.5382 24.7688C46.5382 24.3352 46.2102 24.0422 45.5363 23.8782L44.4523 23.6145C43.2687 23.3274 42.7295 22.8176 42.7295 21.9036C42.7295 20.8547 43.7432 20.0637 45.085 20.0637ZM48.7207 23.3332C48.7207 21.3 49.8341 20.0637 51.6329 20.0637C53.4317 20.0637 54.5449 21.3 54.5449 23.3332C54.5449 25.3605 53.4317 26.6027 51.6329 26.6027C49.8341 26.6027 48.7207 25.3605 48.7207 23.3332ZM53.502 23.3332C53.502 21.8332 52.8282 20.9719 51.6329 20.9719C50.4376 20.9719 49.7639 21.8332 49.7639 23.3332C49.7639 24.8273 50.4376 25.6945 51.6329 25.6945C52.8282 25.6945 53.502 24.8273 53.502 23.3332ZM56.0075 20.175H56.9683V21.1125H57.0621C57.2496 20.4973 57.9763 20.0637 58.8142 20.0637C58.9783 20.0637 59.1892 20.0754 59.3181 20.093V21.1008C59.2361 21.0774 58.8727 21.0422 58.6735 21.0422C57.7126 21.0422 57.0154 21.6867 57.0154 22.5774V26.4915H56.0075L56.0075 20.175ZM60.2818 18.2531C60.2818 17.8664 60.5983 17.55 60.985 17.55C61.3717 17.55 61.688 17.8664 61.688 18.2531C61.688 18.6398 61.3717 18.9562 60.985 18.9562C60.5983 18.9562 60.2818 18.6398 60.2818 18.2531ZM60.481 20.175H61.4888V26.4914H60.481V20.175ZM68.4821 24.8566C68.1891 25.9347 67.2047 26.6027 65.8218 26.6027C64.0698 26.6027 62.9742 25.3371 62.9742 23.339C62.9742 21.3527 64.0874 20.0636 65.8218 20.0636C67.5269 20.0636 68.564 21.2765 68.564 23.2394V23.6261H64.023V23.673C64.0757 24.921 64.773 25.7121 65.8453 25.7121C66.6598 25.7121 67.2106 25.4133 67.4743 24.8566H68.4821ZM64.023 22.8117H67.5036C67.4802 21.6926 66.8122 20.9543 65.8102 20.9543C64.8024 20.9543 64.0992 21.6926 64.023 22.8117ZM72.235 20.0637C73.5592 20.0637 74.4791 20.7199 74.6139 21.7571H73.6178C73.483 21.2532 72.9907 20.9192 72.229 20.9192C71.479 20.9192 70.8932 21.3001 70.8932 21.8626C70.8932 22.2962 71.2447 22.5657 71.9888 22.7474L72.9616 22.9818C74.1511 23.2689 74.7253 23.7845 74.7253 24.6927C74.7253 25.8236 73.6295 26.6029 72.194 26.6029C70.7878 26.6029 69.821 25.9291 69.7096 24.8802H70.7467C70.9166 25.4134 71.4205 25.7532 72.2291 25.7532C73.0787 25.7532 73.6882 25.3489 73.6882 24.7688C73.6882 24.3352 73.3601 24.0422 72.6862 23.8782L71.6021 23.6145C70.4186 23.3274 69.8795 22.8176 69.8795 21.9036C69.8795 20.8547 70.8932 20.0637 72.235 20.0637Z" fill="white" fill-opacity="0.8"/>
</g>
<defs>
<clipPath id="clip0_1_560">
<rect width="67" height="44" fill="white" transform="translate(8.40765 0.5)"/>
</clipPath>
</defs>
</svg>
