<svg width="30" height="45" viewBox="0 0 30 45" fill="none" xmlns="http://www.w3.org/2000/svg">
<path d="M21.0729 18.1825C20.552 18.5014 20.1206 18.9473 19.8189 19.4783C19.5173 20.0094 19.3553 20.6083 19.3481 21.219C19.3502 21.9064 19.5538 22.578 19.9338 23.1508C20.3138 23.7235 20.8535 24.1722 21.486 24.4413C21.2366 25.2459 20.8676 26.0084 20.3912 26.7031C19.7096 27.6843 18.9969 28.6654 17.9125 28.6654C16.8281 28.6654 16.5492 28.0354 15.2995 28.0354C14.0808 28.0354 13.647 28.6861 12.6555 28.6861C11.664 28.6861 10.9721 27.7772 10.1768 26.6618C9.12628 25.0992 8.54892 23.2667 8.51401 21.3842C8.51401 18.2858 10.528 16.6437 12.5109 16.6437C13.5644 16.6437 14.4423 17.3356 15.1033 17.3356C15.7333 17.3356 16.7145 16.6023 17.9125 16.6023C18.5285 16.5864 19.1389 16.7222 19.69 16.9978C20.2411 17.2733 20.716 17.6802 21.0729 18.1825ZM17.3445 15.2907C17.8726 14.6695 18.1716 13.8858 18.1914 13.0707C18.1923 12.9632 18.1819 12.856 18.1604 12.7507C17.2533 12.8393 16.4144 13.2717 15.8159 13.9591C15.2827 14.5556 14.9725 15.3183 14.938 16.1176C14.9384 16.2148 14.9488 16.3117 14.969 16.4068C15.0405 16.4203 15.1131 16.4272 15.1859 16.4275C15.604 16.3942 16.0109 16.2763 16.382 16.0809C16.7531 15.8855 17.0806 15.6166 17.3445 15.2907Z" fill="white" fill-opacity="0.8"/>
</svg>
